Coordinates
version=1
nRows=5
nColumns=40
inDegrees=yes

Units are S.I. units (second, meters, Newtons, ...)
Angles are in degrees.

endheader
time	pelvis_tilt	pelvis_list	pelvis_rotation	pelvis_tx	pelvis_ty	pelvis_tz	hip_flexion_r	hip_adduction_r	hip_rotation_r	knee_angle_r	knee_angle_r_beta	ankle_angle_r	subtalar_angle_r	mtp_angle_r	hip_flexion_l	hip_adduction_l	hip_rotation_l	knee_angle_l	knee_angle_l_beta	ankle_angle_l	subtalar_angle_l	mtp_angle_l	lumbar_extension	lumbar_bending	lumbar_rotation	arm_flex_r	arm_add_r	arm_rot_r	elbow_flex_r	pro_sup_r	wrist_flex_r	wrist_dev_r	arm_flex_l	arm_add_l	arm_rot_l	elbow_flex_l	pro_sup_l	wrist_flex_l	wrist_dev_l
     34.31128571	     -3.41639740	     -4.32805731	      5.51969847	      1.05143790	      0.93190795	      0.46195912	      8.06403371	      3.47541960	    -15.47887792	     12.83360786	     12.83360786	      9.96081454	     -2.83413628	     -7.37058495	     36.21665469	    -13.26785581	      0.16916857	     51.15768429	     51.15768429	      6.50502111	    -18.84008865	     13.93547464	     -9.81025178	      5.02723698	      2.03077574	     29.44174996	    -22.03749365	     -3.61703872	     85.06941859	     44.51513028	      0.00000000	      0.00000000	     -5.32939582	     -6.81128835	     -4.33533012	     30.20496941	     45.42933532	      0.00000000	      0.00000000
     34.32507143	     -3.58304318	     -4.37115818	      6.04220777	      1.04977437	      0.93163133	      0.46164766	      7.74981007	      3.54172174	    -15.96102789	     12.42401925	     12.42401925	     10.04279449	     -2.65152312	     -7.53041423	     36.37968753	    -12.72592764	      0.30293940	     47.51915640	     47.51915640	      6.92549673	    -18.68953924	     13.94630657	     -9.86889259	      5.13292116	      1.90524399	     30.58714041	    -21.92517627	     -4.01261119	     87.51915607	     44.47493150	      0.00000000	      0.00000000	     -5.86387009	     -6.65461289	     -3.71615222	     29.92562478	     45.33793287	      0.00000000	      0.00000000
     34.33885714	     -3.81422698	     -4.33789491	      6.46322571	      1.04807702	      0.93119711	      0.46122623	      7.61851604	      3.50095214	    -16.24281685	     12.24219313	     12.24219313	     10.21240382	     -2.74431464	     -7.61269229	     36.44130278	    -12.05900715	      0.47594339	     43.77807613	     43.77807613	      7.28794649	    -18.38119258	     14.12708360	     -9.81600572	      5.08315806	      2.05894499	     31.80178380	    -22.11143244	     -4.26607849	     88.61544186	     44.45957058	      0.00000000	      0.00000000	     -6.24208135	     -6.48933872	     -3.52553105	     29.78757725	     45.30657267	      0.00000000	      0.00000000
     34.35264286	     -3.95444216	     -4.37701501	      6.93057178	      1.04651522	      0.93073869	      0.46058178	      7.37446632	      3.51290389	    -16.72728590	     12.05531333	     12.05531333	     10.41018270	     -2.54888835	     -7.80072599	     36.31583739	    -11.40615732	      0.82982660	     40.02051752	     40.02051752	      7.38807520	    -17.90149784	     13.70795361	     -9.88306556	      5.20778274	      2.06439948	     32.80608861	    -22.07979090	     -4.53336868	     90.61542819	     44.42426808	      0.00000000	      0.00000000	     -6.62898355	     -6.36531303	     -3.14549680	     29.68192784	     45.25122583	      0.00000000	      0.00000000
     34.36642857	     -4.19578245	     -4.43283934	      7.28790435	      1.04501508	      0.93006788	      0.45998837	      7.28700052	      3.54289866	    -17.00468809	     11.94619149	     11.94619149	     10.60300609	     -2.54948944	     -7.91251971	     36.23344473	    -10.84200548	      1.09829832	     36.43703682	     36.43703682	      7.64118734	    -16.91328800	     13.65197031	     -9.81330907	      5.27686535	      2.28757980	     33.87541203	    -22.26921584	     -4.77657683	     91.57969256	     44.41307451	      0.00000000	      0.00000000	     -6.89700435	     -6.28304024	     -2.99344063	     29.62710822	     45.22802657	      0.00000000	      0.00000000
